<?xml version="1.0" encoding="UTF-8"?>
<svg id="Layer_1" data-name="Layer 1" xmlns="http://www.w3.org/2000/svg" version="1.1" viewBox="0 0 133 123">
  <defs>
    <style>
      .cls-1 {
        fill: #fbb3ad;
        fill-rule: evenodd;
        stroke-width: 0px;
      }
    </style>
  </defs>
  <path class="cls-1" d="M84.9,3c5.8,0,11.4,1.6,16.3,4.7,4.9,3,8.8,7.4,11.3,12.6l.6,1.2h8.7c1,0,2.1.3,3,.8.9.5,1.7,1.2,2.2,2.1.6.9.9,1.9.9,2.9,0,1-.2,2.1-.6,3l-.4.7-9.5,14.3c-.7,1.1-1.1,2.4-1,3.7v.8c0,0,1,4.8,1,4.8,6.1,33.5-19.1,64.4-52.8,65.3h-1.6s-51.7,0-51.7,0c-1,0-2.1-.3-3-.8-.9-.5-1.7-1.2-2.2-2.1s-.9-1.9-.9-2.9c0-1,.2-2.1.6-3l.4-.7L51.8,41.7c1.6-2.3,2.4-5.1,2.4-7.9,0-8.2,3.2-16,9-21.8,5.8-5.8,13.6-9,21.7-9ZM63.4,58.4c-1.7,0-4.1.4-6.4,1.3-2.3.9-3.6,1.8-4,2.3l-20.8,31.3c6.1-1.8,12.7-3.7,18.8-6.1,6.6-2.6,12.2-5.5,16-8.9,3.8-3.3,5.5-6.7,5.5-10.6s-1-4.8-2.7-6.5c-1.7-1.7-4.1-2.7-6.5-2.7ZM84.9,27.6c-1.6,0-3.2.6-4.3,1.8-1.2,1.2-1.8,2.7-1.8,4.4s.6,3.2,1.8,4.4c1.2,1.2,2.7,1.8,4.3,1.8s3.2-.6,4.3-1.8c1.2-1.2,1.8-2.7,1.8-4.4s-.6-3.2-1.8-4.4c-1.2-1.2-2.7-1.8-4.3-1.8Z"/>
</svg>