<?xml version="1.0" encoding="UTF-8"?>
<svg id="Layer_1" data-name="Layer 1" xmlns="http://www.w3.org/2000/svg" version="1.1" viewBox="0 0 133 123">
  <defs>
    <style>
      .cls-1 {
        fill: #fbb3ad;
        stroke-width: 0px;
      }
    </style>
  </defs>
  <path class="cls-1" d="M73.2,47.5h3.9c5,8.7,14.4,14.5,25.1,14.5s4.9-.3,7.3-.9v51.7c0,4-3.2,7.2-7.3,7.2s-7.3-3.2-7.3-7.2v-31.9l-30.8,24.7h12.7c4,0,7.3,3.2,7.3,7.2s-3.2,7.2-7.3,7.2h-32.6c-12,0-21.8-9.7-21.8-21.8v-50.6c0-3.6-2.7-6.8-6.3-7.2l-1.8-.2c-4-.5-6.8-4.1-6.3-8.1.5-4,4.1-6.8,8.1-6.3l1.8.2c10.9,1.4,19.1,10.6,19.1,21.6v19.3c7.8-11.7,21.1-19.4,36.3-19.4ZM109.5,53.5c-2.3.8-4.7,1.2-7.3,1.2-6.4,0-12.2-2.8-16.2-7.2-.8-.9-1.6-1.9-2.2-3-2.1-3.4-3.3-7.3-3.3-11.5V6.4c0-1.3,1.1-2.4,2.4-2.4h0c.7,0,1.5.4,1.9,1h0s2.9,3.9,2.9,3.9l6.2,8.2,1.1,1.5h14.5l1.1-1.5,6.2-8.2,2.9-3.9h0c.5-.6,1.2-1,1.9-1h0c1.3,0,2.4,1.1,2.4,2.4v26.6c0,3.9-1,7.6-2.9,10.8-2.6,4.5-6.7,8-11.6,9.7ZM98.6,33c0-1-.4-1.9-1.1-2.6-.7-.7-1.6-1.1-2.6-1.1s-1.9.4-2.6,1.1c-.7.7-1.1,1.6-1.1,2.6s.4,1.9,1.1,2.6c.7.7,1.6,1.1,2.6,1.1s1.9-.4,2.6-1.1c.7-.7,1.1-1.6,1.1-2.6ZM109.5,36.6c1,0,1.9-.4,2.6-1.1.7-.7,1.1-1.6,1.1-2.6s-.4-1.9-1.1-2.6c-.7-.7-1.6-1.1-2.6-1.1s-1.9.4-2.6,1.1c-.7.7-1.1,1.6-1.1,2.6s.4,1.9,1.1,2.6c.7.7,1.6,1.1,2.6,1.1Z"/>
</svg>