<svg width="500" height="306" viewBox="0 0 500 306" fill="none" xmlns="http://www.w3.org/2000/svg">
<path d="M399.379 90.1921L376.734 220.448L321.767 221.609L309.961 155.997L298.155 216.577L243.188 218.512L220.35 94.063L268.349 89.805L278.026 166.255L290.993 95.6113H328.735L343.831 167.223L351.573 85.9341L399.379 90.1921Z" fill="#0095D5"/>
<path d="M229.544 216.19L181.545 222.383L175.739 200.513H153.675L148.836 222.383L99.4824 217.545L137.998 88.6437L191.803 85.9341L229.544 216.19ZM172.255 170.9L164.901 137.223L157.739 170.9H172.255Z" fill="#0095D5"/>
<path d="M112.449 131.417C112.449 137.675 111.514 143.223 109.643 148.062C107.772 152.9 105.192 157.126 101.901 160.739C98.6756 164.352 94.8692 167.416 90.4822 169.932C86.0952 172.448 81.3856 174.513 76.3534 176.126C71.3858 177.674 66.2246 178.835 60.8698 179.609C55.5151 180.319 50.2571 180.706 45.0959 180.771V225.867H0C0 211.093 0.0322575 196.383 0.0967724 181.738C0.161287 167.094 0.25806 152.32 0.387089 137.417C0.516119 129.546 0.548377 121.675 0.483862 113.804C0.419347 105.933 0.580634 97.9981 0.967724 89.9983C9.22563 87.5467 17.4835 85.708 25.7415 84.4822C33.9994 83.2564 42.5153 82.6436 51.2894 82.6436C56.257 82.6436 61.2247 83.0629 66.1923 83.9016C71.16 84.6758 75.9018 85.9338 80.4178 87.6757C84.9984 89.4176 89.2241 91.6111 93.095 94.2562C97.0304 96.8368 100.417 99.9336 103.256 103.546C106.095 107.159 108.321 111.288 109.933 115.933C111.611 120.514 112.449 125.675 112.449 131.417ZM69.4826 134.707C69.4826 130.514 68.1923 127.256 65.6117 124.933C63.0956 122.546 59.8053 121.353 55.7409 121.353C54.3861 121.353 52.9667 121.482 51.4829 121.74C50.0636 121.933 48.7088 122.191 47.4185 122.514L46.2572 150.771C47.1604 150.9 48.0314 150.965 48.87 150.965C49.7087 150.965 50.5797 150.965 51.4829 150.965C53.8054 150.965 56.0312 150.578 58.1602 149.804C60.3537 149.029 62.2892 147.933 63.9665 146.513C65.6439 145.029 66.9665 143.32 67.9342 141.384C68.9664 139.384 69.4826 137.159 69.4826 134.707Z" fill="#0095D5"/>
<path d="M351.501 305.72C346.678 305.72 342.318 304.894 338.42 303.243C334.588 301.591 331.549 299.213 329.303 296.108C327.057 293.003 325.901 289.336 325.835 285.108H340.699C340.897 287.949 341.888 290.195 343.672 291.847C345.522 293.498 348.032 294.324 351.203 294.324C354.44 294.324 356.984 293.564 358.834 292.045C360.683 290.459 361.608 288.411 361.608 285.901C361.608 283.853 360.981 282.168 359.725 280.847C358.47 279.526 356.885 278.502 354.969 277.775C353.119 276.983 350.543 276.124 347.239 275.199C342.747 273.878 339.081 272.589 336.24 271.334C333.465 270.013 331.054 268.064 329.006 265.488C327.024 262.845 326.033 259.344 326.033 254.983C326.033 250.888 327.057 247.32 329.105 244.281C331.153 241.242 334.027 238.93 337.726 237.345C341.426 235.693 345.654 234.867 350.41 234.867C357.545 234.867 363.326 236.618 367.752 240.119C372.244 243.555 374.722 248.377 375.184 254.587H359.924C359.791 252.209 358.768 250.26 356.852 248.74C355.002 247.155 352.525 246.362 349.42 246.362C346.711 246.362 344.531 247.056 342.879 248.443C341.294 249.831 340.501 251.845 340.501 254.488C340.501 256.338 341.096 257.89 342.285 259.145C343.54 260.335 345.059 261.326 346.843 262.118C348.693 262.845 351.269 263.704 354.572 264.695C359.065 266.016 362.731 267.337 365.572 268.659C368.413 269.98 370.857 271.962 372.905 274.604C374.953 277.247 375.977 280.715 375.977 285.009C375.977 288.709 375.019 292.144 373.103 295.315C371.187 298.486 368.38 301.03 364.68 302.945C360.981 304.795 356.587 305.72 351.501 305.72Z" fill="#464646"/>
<path d="M308.576 235.858V247.056H290.145V305.026H276.271V247.056H257.84V235.858H308.576Z" fill="#464646"/>
<path d="M238.878 305.026H225.005L193.592 257.56V305.026H179.719V235.759H193.592L225.005 283.324V235.759H238.878V305.026Z" fill="#464646"/>
<path d="M157.093 235.858V305.026H143.22V235.858H157.093Z" fill="#464646"/>
<path d="M106.492 305.026L91.2309 278.072H84.6907V305.026H70.8174V235.858H96.7802C102.131 235.858 106.69 236.816 110.455 238.732C114.221 240.581 117.029 243.125 118.878 246.362C120.794 249.533 121.752 253.1 121.752 257.064C121.752 261.623 120.431 265.752 117.788 269.451C115.146 273.085 111.215 275.595 105.996 276.982L122.545 305.026H106.492ZM84.6907 267.667H96.2848C100.05 267.667 102.858 266.776 104.708 264.992C106.558 263.142 107.483 260.599 107.483 257.362C107.483 254.19 106.558 251.746 104.708 250.028C102.858 248.245 100.05 247.353 96.2848 247.353H84.6907V267.667Z" fill="#464646"/>
<path d="M52.0506 257.262C52.0506 260.962 51.1588 264.43 49.3751 267.667C47.6574 270.904 44.9158 273.514 41.1502 275.496C37.4507 277.478 32.7602 278.469 27.0787 278.469H15.4846V305.026H1.61133V235.858H27.0787C32.4298 235.858 36.9882 236.783 40.7538 238.633C44.5194 240.482 47.3271 243.026 49.1769 246.263C51.0927 249.5 52.0506 253.166 52.0506 257.262ZM26.4842 267.271C30.3158 267.271 33.1565 266.412 35.0063 264.695C36.8561 262.911 37.781 260.433 37.781 257.262C37.781 250.524 34.0154 247.155 26.4842 247.155H15.4846V267.271H26.4842Z" fill="#464646"/>
<path d="M418.554 118.674C415.864 117.192 413.346 114.963 411.118 112.405C408.344 109.221 404.902 107.256 400.776 106.381C394.204 104.985 388.47 102.052 384.211 96.7235C380.679 92.3035 379.131 87.3216 380.794 81.6871C382.068 77.3708 384.962 74.3373 388.761 72.0998C391.521 70.4738 394.523 69.5349 397.673 69.045C403.099 68.205 408.186 66.413 413.012 63.7689C419.671 60.1202 426.415 60.084 432.895 64.0548C439.615 68.1722 442.632 74.4055 442.201 82.2644C441.954 86.7566 442.616 91.0347 444.493 95.1377C446.569 99.6761 447.499 104.419 446.601 109.407C445.129 117.566 438.55 122.785 430.275 122.394C426.21 122.201 422.757 121.131 418.556 118.673L418.554 118.674Z" fill="#464646"/>
<path d="M446.502 46.8716C449.064 42.6977 451.703 38.565 455.402 35.2835C456.739 34.0988 458.305 33.0814 459.929 32.3229C462.444 31.1495 464.817 31.8012 466.866 33.64C468.751 35.3322 469.949 37.4841 470.817 39.8069C473.219 46.2326 474.008 52.832 471.858 59.364C469.669 66.0184 465.057 70.627 458.199 72.5835C450.641 74.7378 443.918 70.1132 442.75 62.1863C442.069 57.5672 443.042 53.2593 445.164 49.1789C445.573 48.3906 446.056 47.6388 446.505 46.871L446.502 46.8716Z" fill="#464646"/>
<path d="M440.496 43.3832C438.24 47.2089 435.51 50.5606 431.584 52.684C429.725 53.6902 427.641 54.517 425.565 54.8448C419.024 55.8768 413.473 51.9283 412.24 45.2834C410.771 37.359 413.148 30.5725 419.319 25.386C424.172 21.3068 429.916 19.0532 436.266 18.492C438.648 18.282 441.004 18.4418 443.196 19.6078C445.168 20.6567 446.19 22.318 446.475 24.4751C446.885 27.5863 446.134 30.5428 444.992 33.3632C443.619 36.7562 442.004 40.0491 440.492 43.3855L440.496 43.3832Z" fill="#464646"/>
<path d="M449.631 84.6978C450.84 83.3835 452.152 81.6098 453.8 80.237C458.06 76.688 462.787 73.8829 468.22 72.4627C469.494 72.1295 470.854 71.9629 472.171 71.9914C475.346 72.0586 477.532 73.8291 478.405 76.8873C479.47 80.6263 478.935 84.2974 477.809 87.9033C476.29 92.7651 473.896 97.0761 469.564 100.014C466.181 102.308 462.44 103.596 458.28 103.432C450.27 103.114 445.602 96.6491 447.9 89.0079C448.301 87.6756 448.934 86.4139 449.631 84.7004L449.631 84.6978Z" fill="#464646"/>
<path d="M405.432 60.2193C404.486 61.3155 403.461 62.7583 402.188 63.9308C396.959 68.7409 389.718 67.9801 385.764 62.0387C381.937 56.2855 381.536 50.0615 384.306 43.7183C386.291 39.1679 389.428 35.4888 393.564 32.7677C395.124 31.7408 396.915 30.9439 398.71 30.4273C401.774 29.5439 404.551 30.662 405.982 33.5038C406.983 35.4967 407.728 37.7301 408.051 39.9338C408.861 45.4636 408.766 51.0068 407.04 56.4063C406.658 57.6043 406.065 58.7368 405.434 60.216L405.432 60.2193Z" fill="#464646"/>
<path d="M297.597 220.442C294.987 219.004 292.543 216.841 290.381 214.358C287.69 211.269 284.35 209.363 280.347 208.514C273.969 207.159 268.406 204.313 264.273 199.143C260.846 194.854 259.344 190.02 260.957 184.552C262.193 180.364 265.002 177.421 268.688 175.25C271.366 173.672 274.279 172.761 277.335 172.285C282.601 171.47 287.537 169.732 292.22 167.166C298.681 163.626 305.224 163.59 311.512 167.443C318.033 171.439 320.961 177.487 320.542 185.113C320.302 189.472 320.945 193.623 322.766 197.604C324.78 202.008 325.683 206.61 324.811 211.45C323.383 219.367 317 224.431 308.97 224.051C305.025 223.865 301.676 222.826 297.599 220.441L297.597 220.442Z" fill="white"/>
<path d="M324.717 150.77C327.202 146.72 329.763 142.709 333.353 139.525C334.65 138.376 336.17 137.389 337.745 136.653C340.185 135.514 342.488 136.146 344.477 137.931C346.306 139.573 347.468 141.661 348.31 143.915C350.641 150.15 351.407 156.553 349.32 162.891C347.196 169.348 342.721 173.82 336.067 175.719C328.733 177.809 322.21 173.322 321.076 165.63C320.415 161.148 321.36 156.968 323.418 153.008C323.816 152.244 324.284 151.514 324.72 150.769L324.717 150.77Z" fill="white"/>
<path d="M318.888 147.384C316.699 151.097 314.05 154.349 310.241 156.409C308.437 157.386 306.415 158.188 304.4 158.506C298.053 159.507 292.668 155.676 291.471 149.228C290.045 141.539 292.352 134.954 298.34 129.921C303.049 125.963 308.622 123.776 314.784 123.232C317.096 123.028 319.381 123.183 321.508 124.315C323.422 125.332 324.414 126.944 324.69 129.037C325.088 132.056 324.359 134.925 323.251 137.662C321.919 140.954 320.351 144.149 318.885 147.387L318.888 147.384Z" fill="white"/>
<path d="M327.752 187.473C328.925 186.198 330.199 184.477 331.797 183.144C335.931 179.701 340.518 176.979 345.79 175.601C347.026 175.278 348.346 175.116 349.624 175.144C352.704 175.209 354.826 176.927 355.672 179.894C356.706 183.522 356.187 187.084 355.094 190.583C353.621 195.301 351.297 199.484 347.094 202.334C343.812 204.561 340.181 205.81 336.145 205.651C328.372 205.342 323.843 199.07 326.073 191.655C326.461 190.362 327.076 189.138 327.753 187.475L327.752 187.473Z" fill="white"/>
<path d="M284.866 163.721C283.948 164.784 282.953 166.184 281.718 167.322C276.644 171.989 269.618 171.251 265.782 165.486C262.068 159.904 261.679 153.864 264.367 147.709C266.293 143.294 269.337 139.724 273.35 137.084C274.863 136.087 276.602 135.314 278.343 134.813C281.317 133.955 284.011 135.04 285.399 137.798C286.371 139.732 287.093 141.899 287.407 144.037C288.194 149.403 288.1 154.782 286.426 160.021C286.055 161.183 285.48 162.282 284.868 163.717L284.866 163.721Z" fill="white"/>
</svg>
