<svg width="133" height="123" viewBox="0 0 133 123" fill="none" xmlns="http://www.w3.org/2000/svg">
<rect width="133" height="123" fill="white"/>
<path fill-rule="evenodd" clip-rule="evenodd" d="M84.9499 3C90.7019 2.99942 96.3388 4.61429 101.22 7.66111C106.101 10.7079 110.031 15.0645 112.563 20.2359L113.141 21.4737H121.85C122.892 21.4736 123.916 21.7386 124.828 22.2437C125.739 22.7488 126.508 23.4775 127.061 24.3614C127.614 25.2453 127.934 26.2554 127.991 27.2971C128.048 28.3387 127.839 29.3776 127.385 30.3164L126.966 31.0492L117.422 45.3786C116.69 46.4804 116.332 47.7889 116.401 49.1103L116.487 49.8985L117.354 54.6647C123.436 88.1514 98.24 119.021 64.5074 119.975L62.8961 120H11.1503C10.1085 120 9.08372 119.735 8.17217 119.23C7.26062 118.725 6.49216 117.996 5.93889 117.112C5.38562 116.228 5.06568 115.218 5.00908 114.177C4.95249 113.135 5.16109 112.096 5.61532 111.157L6.03352 110.424L51.82 41.6531C53.372 39.325 54.2002 36.5886 54.2001 33.7895C54.2001 25.6236 57.4398 17.7922 63.2065 12.018C68.9732 6.24388 76.7945 3 84.9499 3ZM63.425 58.4211C61.7584 58.4211 59.3476 58.8521 57.0536 59.708C54.7474 60.5702 53.4744 61.5246 53.0316 62.0357L32.2201 93.2994C38.3578 91.532 44.9198 89.5862 51.0574 87.1784C57.6194 84.6106 63.2221 81.6856 67.1027 78.2741C70.8665 74.9673 72.65 71.5497 72.65 67.6579C72.65 65.2081 71.6781 62.8587 69.948 61.1265C68.218 59.3942 65.8716 58.4211 63.425 58.4211ZM84.9499 27.6316C83.3188 27.6316 81.7546 28.2804 80.6012 29.4352C79.4479 30.59 78.7999 32.1563 78.7999 33.7895C78.7999 35.4226 79.4479 36.9889 80.6012 38.1438C81.7546 39.2986 83.3188 39.9474 84.9499 39.9474C86.581 39.9474 88.1452 39.2986 89.2986 38.1438C90.4519 36.9889 91.0999 35.4226 91.0999 33.7895C91.0999 32.1563 90.4519 30.59 89.2986 29.4352C88.1452 28.2804 86.581 27.6316 84.9499 27.6316Z" fill="#FBB3AD"/>
</svg>
