<svg width="133" height="123" viewBox="0 0 133 123" fill="none" xmlns="http://www.w3.org/2000/svg">
<rect width="133" height="123" fill="white"/>
<path d="M73.2452 47.5H77.1197C82.1273 56.1773 91.5078 62 102.248 62C104.74 62 107.187 61.6828 109.499 61.0938V112.75C109.499 116.76 106.258 120 102.248 120C98.2374 120 94.9972 116.76 94.9972 112.75V80.85L64.1818 105.5H76.8705C80.881 105.5 84.1212 108.74 84.1212 112.75C84.1212 116.76 80.881 120 76.8705 120H44.2424C32.2334 120 22.4903 110.258 22.4903 98.25V47.6133C22.4903 43.9656 19.7713 40.8617 16.146 40.4086L14.3559 40.182C10.3907 39.6836 7.55842 36.0586 8.05691 32.0938C8.55539 28.1289 12.1807 25.2969 16.146 25.7953L17.936 26.0219C28.812 27.3812 36.9917 36.625 36.9917 47.6133V66.9391C44.7862 55.2258 58.1093 47.5 73.2452 47.5ZM109.499 53.5039C107.233 54.2969 104.786 54.75 102.248 54.75C95.8129 54.75 90.0124 51.9406 86.0245 47.5C85.1861 46.5711 84.4384 45.5742 83.7813 44.5094C81.6967 41.1563 80.4959 37.2141 80.4959 33V6.42422C80.4959 5.0875 81.5608 4.02266 82.8976 4H82.943C83.6907 4 84.3931 4.3625 84.8463 4.95156V4.97422L87.7465 8.82578L93.9096 17.05L94.9972 18.5H109.499L110.586 17.05L116.749 8.82578L119.65 4.97422V4.95156C120.103 4.3625 120.805 4 121.553 4H121.598C122.935 4.02266 124 5.0875 124 6.42422V33C124 36.9195 122.958 40.6125 121.145 43.7844C118.585 48.2703 114.438 51.7594 109.499 53.5039ZM98.6226 33C98.6226 32.0386 98.2406 31.1166 97.5607 30.4367C96.8809 29.7569 95.9587 29.375 94.9972 29.375C94.0357 29.375 93.1136 29.7569 92.4337 30.4367C91.7538 31.1166 91.3719 32.0386 91.3719 33C91.3719 33.9614 91.7538 34.8834 92.4337 35.5633C93.1136 36.2431 94.0357 36.625 94.9972 36.625C95.9587 36.625 96.8809 36.2431 97.5607 35.5633C98.2406 34.8834 98.6226 33.9614 98.6226 33ZM109.499 36.625C110.46 36.625 111.382 36.2431 112.062 35.5633C112.742 34.8834 113.124 33.9614 113.124 33C113.124 32.0386 112.742 31.1166 112.062 30.4367C111.382 29.7569 110.46 29.375 109.499 29.375C108.537 29.375 107.615 29.7569 106.935 30.4367C106.255 31.1166 105.873 32.0386 105.873 33C105.873 33.9614 106.255 34.8834 106.935 35.5633C107.615 36.2431 108.537 36.625 109.499 36.625Z" fill="#FBB3AD"/>
</svg>
