<svg width="133" height="123" viewBox="0 0 133 123" fill="none" xmlns="http://www.w3.org/2000/svg">
<rect width="133" height="123" fill="white"/>
<path d="M70.8718 39.9102L76.0857 8.48594C76.5145 5.90312 78.749 4 81.3672 4C83.06 4 84.6399 4.79297 85.6556 6.15234L89.47 11.25H101.229C104.096 11.25 106.849 12.4055 108.881 14.4445L112.943 18.5H125.583C128.585 18.5 131 20.9242 131 23.9375V29.375C131 39.3891 122.92 47.5 112.943 47.5H97.302L96.1509 54.4102L70.8718 39.9102ZM94.887 62.0227V112.75C94.887 116.76 91.6594 120 87.6644 120H80.4418C76.4468 120 73.2192 116.76 73.2192 112.75V86.65C67.8022 89.4367 61.663 91 55.1627 91C48.6623 91 42.5231 89.4367 37.1062 86.65V112.75C37.1062 116.76 33.8786 120 29.8836 120H22.661C18.666 120 15.4384 116.76 15.4384 112.75V60.5953C8.93802 58.1258 3.83705 52.5977 2.07654 45.5289L1.21886 42.0172C0.248323 38.143 2.59567 34.2008 6.47782 33.2266C10.36 32.2523 14.2647 34.6086 15.2352 38.5055L16.1155 42.0172C16.9054 45.2344 19.7945 47.5 23.1124 47.5H69.5627L94.887 62.0227ZM105.721 22.125C105.721 21.1636 105.34 20.2416 104.663 19.5617C103.986 18.8819 103.067 18.5 102.11 18.5C101.152 18.5 100.233 18.8819 99.556 19.5617C98.8788 20.2416 98.4983 21.1636 98.4983 22.125C98.4983 23.0864 98.8788 24.0084 99.556 24.6883C100.233 25.3681 101.152 25.75 102.11 25.75C103.067 25.75 103.986 25.3681 104.663 24.6883C105.34 24.0084 105.721 23.0864 105.721 22.125Z" fill="#FBB3AD"/>
</svg>
