<?xml version="1.0" encoding="UTF-8"?>
<svg id="Layer_1" data-name="Layer 1" xmlns="http://www.w3.org/2000/svg" version="1.1" viewBox="0 0 133 123">
  <defs>
    <style>
      .cls-1 {
        fill: #fbb3ad;
        stroke-width: 0px;
      }
    </style>
  </defs>
  <path class="cls-1" d="M70.9,39.9l5.2-31.4c.4-2.6,2.7-4.5,5.3-4.5s3.3.8,4.3,2.2l3.8,5.1h11.8c2.9,0,5.6,1.2,7.7,3.2l4.1,4.1h12.6c3,0,5.4,2.4,5.4,5.4v5.4c0,10-8.1,18.1-18.1,18.1h-15.6l-1.2,6.9-25.3-14.5ZM94.9,62v50.7c0,4-3.2,7.2-7.2,7.2h-7.2c-4,0-7.2-3.2-7.2-7.2v-26.1c-5.4,2.8-11.6,4.3-18.1,4.3s-12.6-1.6-18.1-4.3v26.1c0,4-3.2,7.2-7.2,7.2h-7.2c-4,0-7.2-3.2-7.2-7.2v-52.2c-6.5-2.5-11.6-8-13.4-15.1l-.9-3.5c-1-3.9,1.4-7.8,5.3-8.8,3.9-1,7.8,1.4,8.8,5.3l.9,3.5c.8,3.2,3.7,5.5,7,5.5h46.5l25.3,14.5ZM105.7,22.1c0-1-.4-1.9-1.1-2.6-.7-.7-1.6-1.1-2.6-1.1s-1.9.4-2.6,1.1c-.7.7-1.1,1.6-1.1,2.6s.4,1.9,1.1,2.6c.7.7,1.6,1.1,2.6,1.1s1.9-.4,2.6-1.1c.7-.7,1.1-1.6,1.1-2.6Z"/>
</svg>