<svg width="133" height="123" viewBox="0 0 133 123" fill="none" xmlns="http://www.w3.org/2000/svg">
<rect width="133" height="123" fill="white"/>
<path d="M106.279 121L88.095 89.6633C88.095 78.2261 80.9679 70.8878 72.3088 70.8878C66.314 70.8878 61.1185 74.1933 58.4542 79.0856C60.6523 77.8294 63.25 77.1683 65.981 77.1683C74.6401 77.1683 81.7006 84.1761 81.7006 92.7706C81.7006 101.431 74.7067 108.505 65.981 108.505H87.9618V121H31.2779C29.6793 121 28.0141 120.405 26.8152 119.149C25.6356 117.972 24.9734 116.379 24.9734 114.719C24.9734 113.059 25.6356 111.467 26.8152 110.29L30.1456 106.984C27.8809 105.993 26.0159 104.472 24.1508 102.886C22.6854 106.191 19.355 108.505 15.4917 108.505C12.9744 108.505 10.5601 107.512 8.78006 105.746C7.00002 103.979 6 101.583 6 99.0842C6 96.5856 7.00002 94.1894 8.78006 92.4226C10.5601 90.6559 12.9744 89.6633 15.4917 89.6633L18.6223 90.1922V77.1683C18.6135 73.0507 19.4242 68.9719 21.0077 65.166C22.5913 61.3601 24.9166 57.9021 27.8501 54.9905C30.7836 52.0789 34.2676 49.771 38.1021 48.1993C41.9366 46.6275 46.0461 45.823 50.1947 45.8317H50.328C64.449 45.8978 75.4394 51.385 75.4394 42.7244C75.4394 36.5761 76.7715 34.13 79.0362 30.6922C74.1738 28.4444 68.6453 27.0561 62.8504 27.0561C59.3201 27.0561 56.5225 24.2794 56.5225 20.7756C56.5225 17.9328 58.3876 15.5528 60.9853 14.7594L56.5225 14.495C53.0589 14.495 50.1947 11.7183 50.1947 8.28056C50.1947 4.77667 53.0589 2 56.5225 2H62.8504C76.8381 2 89.0941 9.60278 95.6883 20.8417L97.5534 20.7756C102.283 20.7756 106.679 22.2961 110.276 24.8083L113.273 27.3206C127.727 40.2122 125.929 48.9389 125.929 49.005C125.929 57.4672 118.868 64.4089 110.276 64.4089L107.012 64.0783V64.6072C107.012 71.9456 103.815 78.4906 98.8189 83.1183L120.866 121H106.279ZM107.012 33.3367C103.482 33.3367 100.684 36.1133 100.684 39.5511C100.684 43.055 103.482 45.8317 107.012 45.8317C110.475 45.8317 113.34 43.055 113.34 39.5511C113.34 36.1133 110.475 33.3367 107.012 33.3367Z" fill="#FBB3AD"/>
</svg>
