<svg width="241" height="148" viewBox="0 0 241 148" fill="none" xmlns="http://www.w3.org/2000/svg">
<path d="M192.719 43.522L181.792 106.376L155.268 106.937L149.571 75.2761L143.874 104.509L117.35 105.442L106.33 45.3899L129.491 43.3352L134.161 80.226L140.419 46.137H158.63L165.915 80.693L169.651 41.4673L192.719 43.522Z" fill="#0095D5"/>
<path d="M110.766 104.322L87.6041 107.31L84.8023 96.7568H74.1553L71.8205 107.31L48.0049 104.976L66.5904 42.7748L92.554 41.4673L110.766 104.322ZM83.1212 82.4674L79.5722 66.2168L76.1166 82.4674H83.1212Z" fill="#0095D5"/>
<path d="M54.2622 63.4148C54.2622 66.4345 53.8108 69.1119 52.9079 71.4467C52.0051 73.7816 50.7599 75.8207 49.1722 77.564C47.6156 79.3074 45.7788 80.7862 43.6619 82.0003C41.545 83.2144 39.2724 84.2106 36.8441 84.9889C34.447 85.7361 31.9565 86.2964 29.3726 86.67C26.7886 87.0125 24.2514 87.1992 21.7609 87.2304V108.991H0C0 101.862 0.0155657 94.7642 0.0466972 87.6973C0.0778287 80.6305 0.124526 73.5014 0.186789 66.31C0.249052 62.512 0.264618 58.7139 0.233486 54.9159C0.202355 51.1179 0.280183 47.2887 0.466972 43.4284C4.4518 42.2454 8.43663 41.3581 12.4215 40.7666C16.4063 40.1751 20.5156 39.8794 24.7495 39.8794C27.1466 39.8794 29.5438 40.0817 31.9409 40.4865C34.338 40.86 36.6262 41.4671 38.8054 42.3076C41.0157 43.1482 43.0548 44.2067 44.9227 45.4831C46.8217 46.7283 48.4561 48.2226 49.8259 49.966C51.1957 51.7094 52.2698 53.7018 53.048 55.9432C53.8575 58.1536 54.2622 60.6441 54.2622 63.4148ZM33.5286 65.0025C33.5286 62.979 32.906 61.4068 31.6607 60.2861C30.4466 59.1342 28.8589 58.5583 26.8976 58.5583C26.2438 58.5583 25.5589 58.6205 24.8429 58.7451C24.158 58.8385 23.5043 58.963 22.8816 59.1186L22.3213 72.7542C22.7571 72.8165 23.1774 72.8476 23.5821 72.8476C23.9868 72.8476 24.4071 72.8476 24.8429 72.8476C25.9637 72.8476 27.0377 72.6608 28.065 72.2873C29.1235 71.9137 30.0574 71.3845 30.8669 70.6996C31.6763 69.9835 32.3145 69.1586 32.7814 68.2246C33.2796 67.2595 33.5286 66.1855 33.5286 65.0025Z" fill="#0095D5"/>
<path d="M169.615 147.524C167.288 147.524 165.184 147.126 163.303 146.329C161.454 145.532 159.988 144.384 158.904 142.886C157.82 141.388 157.262 139.618 157.23 137.578H164.403C164.499 138.949 164.977 140.033 165.838 140.83C166.73 141.627 167.942 142.025 169.472 142.025C171.034 142.025 172.261 141.659 173.154 140.925C174.046 140.16 174.493 139.172 174.493 137.961C174.493 136.972 174.19 136.16 173.584 135.522C172.979 134.884 172.213 134.39 171.289 134.04C170.396 133.657 169.153 133.243 167.559 132.796C165.391 132.159 163.622 131.537 162.251 130.931C160.912 130.294 159.749 129.353 158.761 128.11C157.804 126.835 157.326 125.146 157.326 123.042C157.326 121.065 157.82 119.344 158.808 117.877C159.797 116.411 161.183 115.295 162.969 114.53C164.754 113.733 166.794 113.334 169.089 113.334C172.532 113.334 175.322 114.179 177.457 115.869C179.625 117.527 180.821 119.854 181.044 122.85H173.68C173.616 121.703 173.122 120.762 172.197 120.029C171.305 119.264 170.109 118.881 168.611 118.881C167.304 118.881 166.252 119.216 165.455 119.886C164.69 120.555 164.308 121.527 164.308 122.802C164.308 123.695 164.594 124.444 165.168 125.05C165.774 125.624 166.507 126.102 167.368 126.484C168.26 126.835 169.504 127.249 171.098 127.728C173.265 128.365 175.035 129.003 176.405 129.64C177.776 130.278 178.956 131.234 179.944 132.509C180.932 133.785 181.426 135.458 181.426 137.53C181.426 139.316 180.964 140.973 180.04 142.503C179.115 144.034 177.76 145.261 175.975 146.185C174.19 147.078 172.07 147.524 169.615 147.524Z" fill="white"/>
<path d="M148.903 113.812V119.216H140.009V147.189H133.315V119.216H124.42V113.812H148.903Z" fill="white"/>
<path d="M115.27 147.189H108.576L93.4177 124.285V147.189H86.7231V113.765H93.4177L108.576 136.717V113.765H115.27V147.189Z" fill="white"/>
<path d="M75.8054 113.812V147.189H69.1108V113.812H75.8054Z" fill="white"/>
<path d="M51.3883 147.189L44.0243 134.183H40.8683V147.189H34.1738V113.812H46.7021C49.2843 113.812 51.4839 114.275 53.301 115.199C55.1181 116.092 56.4729 117.319 57.3655 118.881C58.29 120.411 58.7523 122.133 58.7523 124.046C58.7523 126.245 58.1147 128.238 56.8395 130.023C55.5644 131.776 53.6676 132.987 51.1492 133.657L59.1348 147.189H51.3883ZM40.8683 129.162H46.463C48.2801 129.162 49.635 128.732 50.5276 127.871C51.4202 126.978 51.8665 125.751 51.8665 124.189C51.8665 122.659 51.4202 121.479 50.5276 120.65C49.635 119.79 48.2801 119.359 46.463 119.359H40.8683V129.162Z" fill="white"/>
<path d="M25.1172 124.141C25.1172 125.926 24.6868 127.6 23.8261 129.162C22.9972 130.724 21.6743 131.983 19.8572 132.94C18.072 133.896 15.8086 134.374 13.067 134.374H7.47235V147.189H0.777832V113.812H13.067C15.6492 113.812 17.8488 114.259 19.6659 115.151C21.483 116.044 22.8379 117.271 23.7305 118.833C24.6549 120.395 25.1172 122.165 25.1172 124.141ZM12.7801 128.971C14.6291 128.971 15.9999 128.556 16.8925 127.728C17.7851 126.867 18.2314 125.671 18.2314 124.141C18.2314 120.89 16.4143 119.264 12.7801 119.264H7.47235V128.971H12.7801Z" fill="white"/>
<path d="M201.971 57.2656C200.673 56.5506 199.458 55.4751 198.383 54.2403C197.045 52.704 195.384 51.7561 193.393 51.3338C190.221 50.6602 187.454 49.2449 185.399 46.6735C183.695 44.5407 182.948 42.1366 183.75 39.4177C184.365 37.3349 185.761 35.8711 187.595 34.7914C188.926 34.0068 190.375 33.5537 191.895 33.3173C194.514 32.912 196.968 32.0473 199.297 30.7713C202.51 29.0107 205.764 28.9932 208.891 30.9093C212.134 32.8961 213.59 35.904 213.382 39.6963C213.263 41.864 213.582 43.9284 214.488 45.9083C215.49 48.0983 215.939 50.3871 215.505 52.7938C214.795 56.7312 211.62 59.2495 207.627 59.0606C205.665 58.9678 204 58.4511 201.972 57.2652L201.971 57.2656Z" fill="white"/>
<path d="M215.458 22.6178C216.694 20.6037 217.968 18.6095 219.753 17.026C220.398 16.4544 221.154 15.9634 221.937 15.5974C223.151 15.0312 224.296 15.3457 225.285 16.233C226.194 17.0495 226.772 18.0879 227.191 19.2088C228.35 22.3095 228.731 25.494 227.693 28.646C226.637 31.8571 224.412 34.0809 221.103 35.025C217.455 36.0646 214.211 33.833 213.647 30.0079C213.319 27.7789 213.789 25.7002 214.812 23.7312C215.01 23.3508 215.243 22.988 215.459 22.6175L215.458 22.6178Z" fill="white"/>
<path d="M212.56 20.9344C211.471 22.7806 210.154 24.3979 208.259 25.4225C207.362 25.9081 206.356 26.3071 205.355 26.4652C202.198 26.9632 199.52 25.0579 198.925 21.8514C198.216 18.0275 199.363 14.7527 202.341 12.25C204.683 10.2815 207.454 9.19408 210.518 8.92327C211.668 8.82196 212.805 8.89907 213.862 9.46172C214.814 9.96785 215.307 10.7695 215.445 11.8104C215.643 13.3117 215.28 14.7384 214.729 16.0993C214.067 17.7366 213.287 19.3256 212.558 20.9356L212.56 20.9344Z" fill="white"/>
<path d="M216.967 40.8707C217.551 40.2365 218.184 39.3806 218.979 38.7181C221.035 37.0056 223.316 35.652 225.938 34.9667C226.552 34.8059 227.209 34.7255 227.844 34.7392C229.376 34.7717 230.431 35.626 230.852 37.1018C231.366 38.906 231.108 40.6775 230.565 42.4175C229.832 44.7635 228.676 46.8438 226.586 48.2613C224.954 49.3685 223.148 49.9899 221.141 49.9108C217.276 49.7573 215.023 46.6378 216.132 42.9505C216.325 42.3076 216.631 41.6988 216.968 40.872L216.967 40.8707Z" fill="white"/>
<path d="M195.64 29.0587C195.184 29.5877 194.689 30.2839 194.075 30.8497C191.551 33.1708 188.057 32.8037 186.149 29.9367C184.302 27.1605 184.109 24.1571 185.446 21.0962C186.404 18.9004 187.918 17.1251 189.913 15.812C190.666 15.3165 191.53 14.932 192.396 14.6827C193.875 14.2564 195.215 14.7959 195.905 16.1672C196.389 17.1289 196.748 18.2066 196.904 19.27C197.295 21.9384 197.249 24.6133 196.416 27.2188C196.231 27.7969 195.945 28.3433 195.641 29.0571L195.64 29.0587Z" fill="white"/>
<path d="M143.604 106.373C142.345 105.68 141.166 104.636 140.123 103.438C138.824 101.947 137.212 101.027 135.281 100.618C132.203 99.964 129.519 98.5907 127.524 96.0956C125.871 94.026 125.146 91.6933 125.924 89.0551C126.521 87.0341 127.876 85.6138 129.655 84.5661C130.947 83.8048 132.353 83.3651 133.827 83.1357C136.368 82.7425 138.75 81.9034 141.01 80.6653C144.128 78.9569 147.285 78.9399 150.319 80.7992C153.466 82.7271 154.879 85.6457 154.677 89.3255C154.561 91.4288 154.871 93.432 155.75 95.3531C156.722 97.4781 157.158 99.699 156.737 102.034C156.048 105.855 152.967 108.298 149.093 108.115C147.189 108.025 145.573 107.524 143.606 106.373L143.604 106.373Z" fill="white"/>
<path d="M156.691 72.7534C157.89 70.7991 159.126 68.864 160.858 67.3275C161.484 66.7728 162.218 66.2964 162.978 65.9413C164.155 65.3919 165.266 65.697 166.226 66.558C167.109 67.3503 167.67 68.3579 168.076 69.4455C169.201 72.4542 169.57 75.5442 168.563 78.6027C167.538 81.7184 165.379 83.8763 162.168 84.7924C158.629 85.8011 155.481 83.6357 154.934 79.9241C154.615 77.7613 155.071 75.7443 156.064 73.8337C156.256 73.4646 156.482 73.1126 156.692 72.7531L156.691 72.7534Z" fill="white"/>
<path d="M153.879 71.1198C152.823 72.9112 151.544 74.4805 149.706 75.4748C148.836 75.9459 147.86 76.333 146.888 76.4865C143.825 76.9697 141.226 75.1209 140.649 72.0096C139.961 68.2992 141.074 65.1215 143.964 62.6931C146.236 60.7831 148.925 59.7279 151.898 59.4651C153.014 59.3668 154.117 59.4416 155.143 59.9876C156.067 60.4787 156.545 61.2565 156.678 62.2666C156.871 63.7233 156.519 65.1076 155.984 66.4282C155.341 68.0169 154.585 69.5588 153.877 71.1209L153.879 71.1198Z" fill="white"/>
<path d="M158.156 90.4645C158.722 89.8491 159.337 89.0186 160.108 88.3758C162.103 86.714 164.316 85.4006 166.86 84.7357C167.457 84.5796 168.094 84.5016 168.71 84.515C170.197 84.5464 171.221 85.3754 171.629 86.8074C172.128 88.5581 171.877 90.277 171.35 91.9654C170.639 94.2418 169.518 96.2603 167.49 97.6357C165.906 98.7101 164.154 99.313 162.206 99.2363C158.455 99.0873 156.27 96.0604 157.346 92.4826C157.533 91.8587 157.83 91.268 158.157 90.4657L158.156 90.4645Z" fill="white"/>
<path d="M137.461 79.0028C137.018 79.5161 136.538 80.1916 135.942 80.7406C133.494 82.9928 130.103 82.6366 128.252 79.8547C126.46 77.1609 126.272 74.2467 127.569 71.2766C128.499 69.146 129.968 67.4233 131.904 66.1492C132.635 65.6684 133.473 65.2953 134.314 65.0534C135.749 64.6397 137.049 65.1633 137.719 66.4939C138.188 67.427 138.536 68.4727 138.687 69.5046C139.067 72.0938 139.022 74.6893 138.214 77.2174C138.035 77.7784 137.757 78.3087 137.462 79.0013L137.461 79.0028Z" fill="white"/>
</svg>
